<svg width="32" height="27" viewBox="0 0 32 27" fill="none" xmlns="http://www.w3.org/2000/svg">
<path d="M29.2837 23.2123C32.3007 19.8879 31.9969 15.6188 31.9873 15.5701L31.9873 10.7004V2.58418C31.9873 1.68815 31.2726 0.960937 30.3885 0.960937L20.7957 0.960937C19.0322 0.960937 17.5981 2.41698 17.5981 4.20742L17.5981 15.5701C17.5981 16.4661 18.3127 17.1933 19.1969 17.1933H20.7957H24.118C24.0844 17.8459 23.9213 18.6737 23.4321 19.4594C22.6199 20.7596 21.0898 21.6475 18.8819 22.0955L17.5981 22.3552V26.9328H19.1969C23.6463 26.9328 27.0406 25.6812 29.2837 23.2123ZM11.6857 23.2123C14.7042 19.8879 14.3988 15.6188 14.3893 15.5701V10.7004L14.3893 2.58418C14.3893 1.68815 13.6746 0.960937 12.7904 0.960937L3.19761 0.960937C1.43413 0.960937 0 2.41698 0 4.20742L0 15.5701C0 16.4661 0.714666 17.1933 1.59881 17.1933H3.19761H6.51993C6.48635 17.8459 6.32328 18.6737 5.83404 19.4594C5.02185 20.7596 3.49179 21.6475 1.28384 22.0955L0 22.3552L0 26.9328H1.59881C6.04828 26.9328 9.44255 25.6812 11.6857 23.2123Z" fill="white"/>
</svg>
