<svg width="260" height="20" viewBox="0 0 260 20" fill="none" xmlns="http://www.w3.org/2000/svg">
<path d="M9.72906 6.64471L5.39337 15.0153C5.08635 15.6081 5.43609 16.3295 6.09203 16.4565L8.68437 16.9584C9.22571 17.0632 9.74965 16.7106 9.85586 16.1701L11.5992 7.29755C11.8221 6.16328 10.2607 5.61824 9.72906 6.64471Z" fill="url(#paint0_linear)"/>
<path d="M33.7955 6.64861L29.4598 15.0192C29.1528 15.612 29.5025 16.3334 30.1584 16.4604L32.7508 16.9623C33.2921 17.0671 33.8161 16.7145 33.9223 16.174L35.6656 7.30145C35.8885 6.16719 34.3271 5.62215 33.7955 6.64861Z" fill="url(#paint1_linear)"/>
<path d="M57.8638 6.64471L53.5281 15.0153C53.2211 15.6081 53.5709 16.3295 54.2268 16.4565L56.8191 16.9584C57.3605 17.0632 57.8844 16.7106 57.9906 16.1701L59.734 7.29755C59.9568 6.16328 58.3955 5.61824 57.8638 6.64471Z" fill="url(#paint2_linear)"/>
<path d="M81.9322 6.64861L77.5965 15.0192C77.2895 15.612 77.6392 16.3334 78.2952 16.4604L80.8875 16.9623C81.4288 17.0671 81.9528 16.7145 82.059 16.174L83.8023 7.30145C84.0252 6.16719 82.4639 5.62215 81.9322 6.64861Z" fill="url(#paint3_linear)"/>
<path d="M105.999 6.64471L101.663 15.0153C101.356 15.6081 101.706 16.3295 102.362 16.4565L104.954 16.9584C105.495 17.0632 106.019 16.7106 106.125 16.1701L107.869 7.29755C108.092 6.16328 106.53 5.61824 105.999 6.64471Z" fill="url(#paint4_linear)"/>
<path d="M130.065 6.64861L125.729 15.0192C125.422 15.612 125.772 16.3334 126.428 16.4604L129.02 16.9623C129.562 17.0671 130.086 16.7145 130.192 16.174L131.935 7.30145C132.158 6.16719 130.597 5.62215 130.065 6.64861Z" fill="url(#paint5_linear)"/>
<path d="M154.131 6.64861L149.796 15.0192C149.489 15.612 149.838 16.3334 150.494 16.4604L153.087 16.9623C153.628 17.0671 154.152 16.7145 154.258 16.174L156.002 7.30145C156.224 6.16719 154.663 5.62215 154.131 6.64861Z" fill="url(#paint6_linear)"/>
<path d="M178.202 6.64471L173.866 15.0153C173.559 15.6081 173.909 16.3295 174.565 16.4565L177.157 16.9584C177.698 17.0632 178.222 16.7106 178.329 16.1701L180.072 7.29755C180.295 6.16328 178.733 5.61824 178.202 6.64471Z" fill="url(#paint7_linear)"/>
<path d="M202.282 6.64861L197.946 15.0192C197.639 15.612 197.989 16.3334 198.645 16.4604L201.237 16.9623C201.778 17.0671 202.302 16.7145 202.409 16.174L204.152 7.30145C204.375 6.16719 202.813 5.62215 202.282 6.64861Z" fill="url(#paint8_linear)"/>
<path d="M226.362 6.64471L222.026 15.0153C221.719 15.6081 222.069 16.3295 222.725 16.4565L225.317 16.9584C225.859 17.0632 226.382 16.7106 226.489 16.1701L228.232 7.29755C228.455 6.16328 226.894 5.61824 226.362 6.64471Z" fill="url(#paint9_linear)"/>
<path d="M250.44 6.64861L246.104 15.0192C245.797 15.612 246.147 16.3334 246.803 16.4604L249.395 16.9623C249.937 17.0671 250.461 16.7145 250.567 16.174L252.31 7.30145C252.533 6.16719 250.972 5.62215 250.44 6.64861Z" fill="url(#paint10_linear)"/>
<defs>
<linearGradient id="paint0_linear" x1="6.47446" y1="4.03277" x2="12.803" y2="15.4003" gradientUnits="userSpaceOnUse">
<stop offset="0.317708" stop-color="#FF7468"/>
<stop offset="0.447917" stop-color="#FE8E86" stop-opacity="0.6"/>
<stop offset="1" stop-color="white" stop-opacity="0"/>
</linearGradient>
<linearGradient id="paint1_linear" x1="30.5409" y1="4.03668" x2="36.8694" y2="15.4042" gradientUnits="userSpaceOnUse">
<stop offset="0.317708" stop-color="#FF7468"/>
<stop offset="0.447917" stop-color="#FE8E86" stop-opacity="0.6"/>
<stop offset="1" stop-color="white" stop-opacity="0"/>
</linearGradient>
<linearGradient id="paint2_linear" x1="54.6092" y1="4.03277" x2="60.9377" y2="15.4003" gradientUnits="userSpaceOnUse">
<stop offset="0.317708" stop-color="#FF7468"/>
<stop offset="0.447917" stop-color="#FE8E86" stop-opacity="0.6"/>
<stop offset="1" stop-color="white" stop-opacity="0"/>
</linearGradient>
<linearGradient id="paint3_linear" x1="78.6776" y1="4.03668" x2="85.0061" y2="15.4042" gradientUnits="userSpaceOnUse">
<stop offset="0.317708" stop-color="#FF7468"/>
<stop offset="0.447917" stop-color="#FE8E86" stop-opacity="0.6"/>
<stop offset="1" stop-color="white" stop-opacity="0"/>
</linearGradient>
<linearGradient id="paint4_linear" x1="102.744" y1="4.03277" x2="109.072" y2="15.4003" gradientUnits="userSpaceOnUse">
<stop offset="0.317708" stop-color="#FF7468"/>
<stop offset="0.447917" stop-color="#FE8E86" stop-opacity="0.6"/>
<stop offset="1" stop-color="white" stop-opacity="0"/>
</linearGradient>
<linearGradient id="paint5_linear" x1="126.81" y1="4.03668" x2="133.139" y2="15.4042" gradientUnits="userSpaceOnUse">
<stop offset="0.317708" stop-color="#FF7468"/>
<stop offset="0.447917" stop-color="#FE8E86" stop-opacity="0.6"/>
<stop offset="1" stop-color="white" stop-opacity="0"/>
</linearGradient>
<linearGradient id="paint6_linear" x1="150.877" y1="4.03668" x2="157.205" y2="15.4042" gradientUnits="userSpaceOnUse">
<stop offset="0.317708" stop-color="#FF7468"/>
<stop offset="0.447917" stop-color="#FE8E86" stop-opacity="0.6"/>
<stop offset="1" stop-color="white" stop-opacity="0"/>
</linearGradient>
<linearGradient id="paint7_linear" x1="174.947" y1="4.03277" x2="181.276" y2="15.4003" gradientUnits="userSpaceOnUse">
<stop offset="0.317708" stop-color="#FF7468"/>
<stop offset="0.447917" stop-color="#FE8E86" stop-opacity="0.6"/>
<stop offset="1" stop-color="white" stop-opacity="0"/>
</linearGradient>
<linearGradient id="paint8_linear" x1="199.027" y1="4.03668" x2="205.356" y2="15.4042" gradientUnits="userSpaceOnUse">
<stop offset="0.317708" stop-color="#FF7468"/>
<stop offset="0.447917" stop-color="#FE8E86" stop-opacity="0.6"/>
<stop offset="1" stop-color="white" stop-opacity="0"/>
</linearGradient>
<linearGradient id="paint9_linear" x1="223.107" y1="4.03277" x2="229.436" y2="15.4003" gradientUnits="userSpaceOnUse">
<stop offset="0.317708" stop-color="#FF7468"/>
<stop offset="0.447917" stop-color="#FE8E86" stop-opacity="0.6"/>
<stop offset="1" stop-color="white" stop-opacity="0"/>
</linearGradient>
<linearGradient id="paint10_linear" x1="247.185" y1="4.03668" x2="253.514" y2="15.4042" gradientUnits="userSpaceOnUse">
<stop offset="0.317708" stop-color="#FF7468"/>
<stop offset="0.447917" stop-color="#FE8E86" stop-opacity="0.6"/>
<stop offset="1" stop-color="white" stop-opacity="0"/>
</linearGradient>
</defs>
</svg>
