<svg width="74" height="20" viewBox="0 0 74 20" fill="none" xmlns="http://www.w3.org/2000/svg">
<path d="M12.3575 9.57726C12.3394 7.43913 14.1175 6.39993 14.1956 6.35215C13.1864 4.89488 11.6246 4.69182 11.078 4.6739C9.76846 4.53653 8.49499 5.45629 7.82821 5.45629C7.14942 5.45629 6.11623 4.69182 5.01094 4.70973C3.58729 4.73362 2.24774 5.55184 1.52089 6.82994C0.0131426 9.42795 1.13645 13.2503 2.58413 15.3526C3.31097 16.3798 4.15195 17.5325 5.26324 17.4907C6.34449 17.4489 6.75296 16.8039 8.05648 16.8039C9.35398 16.8039 9.73242 17.4907 10.8617 17.4668C12.0271 17.4489 12.7539 16.4336 13.4567 15.3944C14.2917 14.2178 14.6281 13.0532 14.6401 12.9935C14.6101 12.9815 12.3815 12.1335 12.3575 9.57726Z" fill="white"/>
<path d="M10.2239 3.29327C10.8067 2.5706 11.2033 1.58515 11.0951 0.581787C10.254 0.617622 9.19649 1.16111 8.58964 1.87183C8.0549 2.49893 7.57423 3.52022 7.69439 4.48178C8.64372 4.55345 9.61708 4.00399 10.2239 3.29327Z" fill="white"/>
<path d="M28.0504 17.3406H26.5366L25.7076 14.7485H22.8243L22.0374 17.3406H20.5657L23.419 8.51929H25.185L28.0504 17.3406ZM25.4614 13.6615L24.7105 11.3622C24.6324 11.1233 24.4822 10.5738 24.266 9.70183H24.2359C24.1458 10.0781 24.0077 10.6335 23.8154 11.3622L23.0766 13.6615H25.4614Z" fill="white"/>
<path d="M35.3819 14.0845C35.3819 15.1655 35.0876 16.0195 34.4929 16.6466C33.9643 17.208 33.3035 17.4828 32.5226 17.4828C31.6756 17.4828 31.0689 17.1842 30.6965 16.5809V19.9195H29.2728V13.0692C29.2728 12.3883 29.2548 11.6955 29.2188 10.9788H30.4682L30.5463 11.9881H30.5703C31.0449 11.2296 31.7657 10.8474 32.7268 10.8474C33.4837 10.8474 34.1084 11.146 34.613 11.7373C35.1296 12.3345 35.3819 13.111 35.3819 14.0845ZM33.9342 14.1322C33.9342 13.5111 33.7961 13.0035 33.5137 12.6033C33.2074 12.1852 32.7929 11.9762 32.2763 11.9762C31.9279 11.9762 31.6095 12.0956 31.3212 12.3226C31.0389 12.5555 30.8466 12.8541 30.7625 13.2304C30.7205 13.4036 30.6965 13.5469 30.6965 13.6604V14.7235C30.6965 15.1834 30.8406 15.5776 31.123 15.8941C31.4053 16.2107 31.7777 16.3719 32.2343 16.3719C32.7689 16.3719 33.1834 16.1629 33.4837 15.7567C33.784 15.3446 33.9342 14.8071 33.9342 14.1322Z" fill="white"/>
<path d="M42.7368 14.0845C42.7368 15.1655 42.4424 16.0195 41.8477 16.6466C41.3191 17.208 40.6584 17.4828 39.8774 17.4828C39.0305 17.4828 38.4238 17.1842 38.0513 16.5809V19.9195H36.6277V13.0692C36.6277 12.3883 36.6097 11.6955 36.5736 10.9788H37.8231L37.9011 11.9881H37.9252C38.3997 11.2296 39.1206 10.8474 40.0817 10.8474C40.8386 10.8474 41.4633 11.146 41.9679 11.7373C42.4845 12.3345 42.7368 13.111 42.7368 14.0845ZM41.2891 14.1322C41.2891 13.5111 41.1509 13.0035 40.8686 12.6033C40.5622 12.1852 40.1478 11.9762 39.6312 11.9762C39.2828 11.9762 38.9644 12.0956 38.676 12.3226C38.3937 12.5555 38.2075 12.8541 38.1174 13.2304C38.0754 13.4036 38.0513 13.5469 38.0513 13.6604V14.7235C38.0513 15.1834 38.1955 15.5776 38.4778 15.8941C38.7601 16.2107 39.1326 16.3719 39.5891 16.3719C40.1237 16.3719 40.5442 16.1629 40.8386 15.7567C41.1449 15.3446 41.2891 14.8071 41.2891 14.1322Z" fill="white"/>
<path d="M50.969 14.8684C50.969 15.6209 50.7047 16.2301 50.1821 16.7019C49.6055 17.2156 48.8005 17.4724 47.7673 17.4724C46.8122 17.4724 46.0493 17.2872 45.4727 16.9229L45.803 15.7463C46.4278 16.1107 47.1126 16.2958 47.8574 16.2958C48.392 16.2958 48.8125 16.1764 49.1069 15.9375C49.4072 15.6986 49.5574 15.3761 49.5574 14.9759C49.5574 14.6176 49.4313 14.3189 49.191 14.0741C48.9447 13.8292 48.5362 13.6022 47.9656 13.3932C46.3977 12.8139 45.6228 11.9718 45.6228 10.8669C45.6228 10.1442 45.8992 9.55294 46.4458 9.08709C46.9924 8.62721 47.7193 8.39429 48.6263 8.39429C49.4313 8.39429 50.104 8.53165 50.6387 8.81236L50.2782 9.95906C49.7736 9.6903 49.209 9.55294 48.5723 9.55294C48.0737 9.55294 47.6772 9.67836 47.3949 9.91726C47.1606 10.1382 47.0405 10.401 47.0405 10.7176C47.0405 11.064 47.1786 11.3566 47.449 11.5776C47.6832 11.7866 48.1157 12.0136 48.7404 12.2584C49.5033 12.563 50.062 12.9214 50.4224 13.3335C50.7888 13.7456 50.969 14.2592 50.969 14.8684Z" fill="white"/>
<path d="M55.6705 12.044H54.1023V15.1317C54.1023 15.9141 54.3787 16.3083 54.9315 16.3083C55.1839 16.3083 55.3941 16.2844 55.5624 16.2426L55.6044 17.3176C55.322 17.4192 54.9555 17.4729 54.4989 17.4729C53.9341 17.4729 53.5015 17.2997 53.1831 16.9593C52.8646 16.6189 52.7084 16.0455 52.7084 15.2452V12.038H51.7771V10.9809H52.7084V9.81626L54.1023 9.39819V10.9809H55.6705V12.044Z" fill="white"/>
<path d="M62.7301 14.1102C62.7301 15.0897 62.4478 15.89 61.8891 16.5171C61.3005 17.1621 60.5196 17.4846 59.5464 17.4846C58.6093 17.4846 57.8585 17.174 57.2998 16.5589C56.7412 15.9437 56.4648 15.1613 56.4648 14.2177C56.4648 13.2322 56.7532 12.426 57.3238 11.7989C57.9005 11.1718 58.6754 10.8552 59.6485 10.8552C60.5856 10.8552 61.3425 11.1658 61.9132 11.7869C62.4598 12.3842 62.7301 13.1606 62.7301 14.1102ZM61.2584 14.1401C61.2584 13.5548 61.1323 13.059 60.88 12.641C60.5796 12.1333 60.1531 11.8825 59.6005 11.8825C59.0298 11.8825 58.5913 12.1333 58.297 12.641C58.0387 13.059 57.9185 13.5667 57.9185 14.1699C57.9185 14.7552 58.0447 15.2569 58.297 15.669C58.6033 16.1767 59.0358 16.4275 59.5885 16.4275C60.1291 16.4275 60.5556 16.1707 60.868 15.6571C61.1263 15.227 61.2584 14.7254 61.2584 14.1401Z" fill="white"/>
<path d="M67.3535 12.2211C67.2153 12.1972 67.0651 12.1852 66.9029 12.1852C66.4042 12.1852 66.0136 12.3704 65.7433 12.7466C65.5089 13.0751 65.3888 13.4992 65.3888 14.0009V17.3394H63.9648V12.9796C63.9648 12.245 63.9528 11.576 63.9227 10.9788H65.1605L65.2145 12.1972H65.2566C65.4068 11.7791 65.6411 11.4387 65.9656 11.1878C66.284 10.9609 66.6265 10.8474 66.993 10.8474C67.1252 10.8474 67.2454 10.8594 67.3475 10.8713L67.3535 12.2211Z" fill="white"/>
<path d="M73.7041 13.8559C73.7041 14.1067 73.6861 14.3217 73.65 14.4949H69.3851C69.4031 15.1221 69.6073 15.6058 70.0038 15.9343C70.3642 16.227 70.8268 16.3763 71.3974 16.3763C72.0282 16.3763 72.6048 16.2747 73.1214 16.0776L73.3437 17.0571C72.737 17.3199 72.0222 17.4513 71.1992 17.4513C70.208 17.4513 69.4271 17.1586 68.8625 16.5793C68.2978 16 68.0155 15.2176 68.0155 14.2441C68.0155 13.2885 68.2798 12.4882 68.8084 11.8492C69.3611 11.1683 70.1059 10.8279 71.043 10.8279C71.9621 10.8279 72.6649 11.1683 73.1334 11.8492C73.5119 12.3986 73.7041 13.0616 73.7041 13.8559ZM72.3465 13.4916C72.3585 13.0735 72.2624 12.7092 72.0702 12.4046C71.8239 12.0104 71.4455 11.8133 70.9409 11.8133C70.4784 11.8133 70.0999 12.0044 69.8116 12.3867C69.5773 12.6913 69.4331 13.0616 69.3911 13.4856L72.3465 13.4916Z" fill="white"/>
<path d="M24.776 5.36308H24.031L23.6224 4.09095H22.2044L21.8139 5.36308H21.0929L22.4928 1.0271H23.3581L24.776 5.36308ZM23.4962 3.55344L23.1297 2.41867C23.0937 2.3052 23.0216 2.03047 22.9074 1.60045H22.8954C22.8473 1.7856 22.7873 2.05436 22.6851 2.41867L22.3246 3.55344H23.4962Z" fill="white"/>
<path d="M28.2839 2.23022L27.0943 5.35977H26.4153L25.2617 2.23022H26.0128L26.5475 3.88459C26.6376 4.15932 26.7157 4.4221 26.7758 4.67295H26.7939C26.8479 4.44599 26.926 4.18321 27.0222 3.88459L27.5509 2.23022H28.2839Z" fill="white"/>
<path d="M30.816 5.36274L30.7619 5.0044H30.7439C30.5276 5.29108 30.2212 5.43441 29.8246 5.43441C29.2598 5.43441 28.8633 5.04023 28.8633 4.51466C28.8633 3.74422 29.5362 3.34407 30.7018 3.34407V3.28434C30.7018 2.87224 30.4795 2.66918 30.0469 2.66918C29.7345 2.66918 29.4641 2.74682 29.2238 2.90211L29.0796 2.4482C29.368 2.26903 29.7345 2.17944 30.1611 2.17944C30.9842 2.17944 31.3988 2.60946 31.3988 3.47546V4.62814C31.3988 4.94468 31.4108 5.18954 31.4469 5.37469L30.816 5.36274ZM30.7199 3.80394C29.9448 3.80394 29.5542 3.98909 29.5542 4.43702C29.5542 4.7655 29.7525 4.92676 30.0349 4.92676C30.3894 4.92676 30.7199 4.658 30.7199 4.28771V3.80394Z" fill="white"/>
<path d="M32.9579 1.72055C32.7236 1.72055 32.5433 1.54138 32.5433 1.30248C32.5433 1.06358 32.7296 0.890381 32.9699 0.890381C33.2103 0.890381 33.4025 1.06358 33.3965 1.30248C33.3965 1.55332 33.2163 1.72055 32.9579 1.72055ZM32.6214 2.23418H33.3184V5.35775H32.6214V2.23418Z" fill="white"/>
<path d="M34.5585 0.804443H35.2554V5.3614H34.5585V0.804443Z" fill="white"/>
<path d="M38.2218 5.36481L38.1677 5.00647H38.1497C37.9334 5.29314 37.6269 5.43648 37.2304 5.43648C36.6656 5.43648 36.269 5.0423 36.269 4.51673C36.269 3.74628 36.942 3.34613 38.1076 3.34613V3.28641C38.1076 2.87431 37.8853 2.67125 37.4527 2.67125C37.1403 2.67125 36.8699 2.74889 36.6295 2.90417L36.4853 2.4443C36.7737 2.26512 37.1403 2.17554 37.5669 2.17554C38.39 2.17554 38.8046 2.60555 38.8046 3.47155V4.62423C38.8046 4.94077 38.8166 5.18564 38.8466 5.37078H38.2218V5.36481ZM38.1256 3.80601C37.3506 3.80601 36.96 3.99115 36.96 4.43909C36.96 4.76757 37.1583 4.92882 37.4407 4.92882C37.7952 4.92882 38.1256 4.66007 38.1256 4.28978V3.80601Z" fill="white"/>
<path d="M41.6403 5.43904C41.1957 5.43904 40.8652 5.2539 40.6489 4.88361H40.6369L40.5948 5.36738H40C40.018 5.11653 40.024 4.83583 40.024 4.52526V0.804443H40.727V2.6977H40.739C40.9493 2.3513 41.2798 2.1781 41.7424 2.1781C42.4995 2.1781 43.0282 2.82312 43.0282 3.76079C43.0282 4.72833 42.4394 5.43904 41.6403 5.43904ZM41.4961 2.72159C41.0935 2.72159 40.727 3.06799 40.727 3.55176V4.10122C40.727 4.53124 41.0575 4.88361 41.4841 4.88361C42.0068 4.88361 42.3192 4.45957 42.3192 3.78468C42.3192 3.15161 41.9948 2.72159 41.4961 2.72159Z" fill="white"/>
<path d="M44.0625 0.804443H44.7595V5.3614H44.0625V0.804443Z" fill="white"/>
<path d="M48.5628 3.9714H46.4659C46.4779 4.56267 46.8745 4.89712 47.4573 4.89712C47.7697 4.89712 48.0521 4.84337 48.3045 4.74781L48.4126 5.23158C48.1182 5.36297 47.7697 5.4227 47.3612 5.4227C46.3758 5.4227 45.793 4.80754 45.793 3.84598C45.793 2.89039 46.3878 2.16772 47.283 2.16772C48.0822 2.16772 48.5929 2.75899 48.5929 3.65486C48.5929 3.78028 48.5869 3.88778 48.5628 3.9714ZM47.9259 3.47569C47.9259 2.99192 47.6796 2.65149 47.235 2.65149C46.8324 2.65149 46.52 2.99789 46.4719 3.47569H47.9259Z" fill="white"/>
<path d="M52.7952 5.43648C51.876 5.43648 51.2811 4.75562 51.2811 3.8299C51.2811 2.86237 51.888 2.17554 52.8493 2.17554C53.7566 2.17554 54.3634 2.82653 54.3634 3.77615C54.3634 4.74965 53.7386 5.43648 52.7952 5.43648ZM52.8253 2.68319C52.3206 2.68319 51.9961 3.15501 51.9961 3.80601C51.9961 4.45103 52.3266 4.91688 52.8193 4.91688C53.312 4.91688 53.6424 4.4152 53.6424 3.78809C53.6364 3.15501 53.318 2.68319 52.8253 2.68319Z" fill="white"/>
<path d="M58.1229 5.36297H57.426V3.56527C57.426 3.00984 57.2097 2.7351 56.7891 2.7351C56.3745 2.7351 56.0921 3.08748 56.0921 3.49958V5.357H55.3951V3.12928C55.3951 2.85455 55.3891 2.55593 55.3711 2.23342H55.9839L56.014 2.71719H56.032C56.2183 2.38273 56.6028 2.16772 57.0294 2.16772C57.6903 2.16772 58.1229 2.66941 58.1229 3.48763V5.36297Z" fill="white"/>
<path d="M62.6898 2.76268H61.9207V4.27968C61.9207 4.66789 62.0589 4.859 62.3293 4.859C62.4495 4.859 62.5576 4.84706 62.6417 4.82914L62.6598 5.35471C62.5216 5.40847 62.3413 5.43236 62.119 5.43236C61.5662 5.43236 61.2418 5.12776 61.2418 4.3394V2.76268H60.7852V2.24308H61.2418V1.66973L61.9267 1.46069V2.23711H62.6958V2.76268" fill="white"/>
<path d="M66.3849 5.36738H65.6879V3.58162C65.6879 3.02021 65.4716 2.73951 65.051 2.73951C64.6905 2.73951 64.3541 2.98438 64.3541 3.48009V5.3614H63.6571V0.804443H64.3541V2.67978H64.3661C64.5884 2.33936 64.9008 2.17213 65.3094 2.17213C65.9763 2.17213 66.3849 2.68576 66.3849 3.50398V5.36738Z" fill="white"/>
<path d="M69.9575 3.9714H67.8606C67.8726 4.56267 68.2691 4.89712 68.8519 4.89712C69.1644 4.89712 69.4468 4.84337 69.6991 4.74781L69.8073 5.23158C69.5129 5.36297 69.1644 5.4227 68.7558 5.4227C67.7704 5.4227 67.1876 4.80754 67.1876 3.84598C67.1876 2.89039 67.7825 2.16772 68.6777 2.16772C69.4768 2.16772 69.9875 2.75899 69.9875 3.65486C69.9875 3.78028 69.9815 3.88778 69.9575 3.9714ZM69.3206 3.47569C69.3206 2.99192 69.0743 2.65149 68.6296 2.65149C68.2271 2.65149 67.9086 2.99789 67.8666 3.47569H69.3206Z" fill="white"/>
</svg>
