<svg width="32" height="6" viewBox="0 0 32 6" fill="none" xmlns="http://www.w3.org/2000/svg">
<path d="M4.96431 3.42801C4.96431 4.06207 4.80508 4.61687 4.40702 5.01316C3.92934 5.48871 3.37204 5.72648 2.65552 5.72648C1.939 5.72648 1.3817 5.48871 0.90402 5.01316C0.426339 4.53762 0.1875 3.98281 0.1875 3.26949C0.1875 2.55617 0.426339 2.00137 0.90402 1.52582C1.3817 1.05027 1.939 0.8125 2.65552 0.8125C2.97397 0.8125 3.29243 0.891758 3.61088 1.05027C3.92934 1.20879 4.16817 1.3673 4.3274 1.60508L3.92933 2.00137C3.61088 1.60508 3.21281 1.44656 2.65552 1.44656C2.17784 1.44656 1.70016 1.60508 1.3817 2.00137C0.983635 2.3184 0.824408 2.79394 0.824408 3.34875C0.824408 3.90355 0.983635 4.3791 1.3817 4.69613C1.77977 5.01316 2.17784 5.25094 2.65552 5.25094C3.21281 5.25094 3.61088 5.09242 4.00895 4.69613C4.24779 4.45836 4.40702 4.14133 4.40702 3.74504H2.65552V3.11098H4.96431V3.42801ZM8.62653 1.44656H6.47697V2.95246H8.46731V3.50726H6.47697V5.01316H8.62653V5.64722H5.84006V0.891758H8.62653V1.44656ZM11.2538 5.64722H10.6169V1.44656H9.26344V0.891758H12.6072V1.44656H11.2538V5.64722ZM14.916 5.64722V0.891758H15.5529V5.64722H14.916ZM18.2598 5.64722H17.6229V1.44656H16.2694V0.891758H19.5336V1.44656H18.1802V5.64722H18.2598ZM25.8231 5.01316C25.3454 5.48871 24.7881 5.72648 24.0716 5.72648C23.355 5.72648 22.7977 5.48871 22.3201 5.01316C21.8424 4.53762 21.6035 3.98281 21.6035 3.26949C21.6035 2.55617 21.8424 2.00137 22.3201 1.52582C22.7977 1.05027 23.355 0.8125 24.0716 0.8125C24.7881 0.8125 25.3454 1.05027 25.8231 1.52582C26.3007 2.00137 26.5396 2.55617 26.5396 3.26949C26.5396 3.98281 26.3007 4.53762 25.8231 5.01316ZM22.7977 4.61687C23.1162 4.9339 23.5939 5.17168 24.0716 5.17168C24.5492 5.17168 25.0269 5.01316 25.3454 4.61687C25.6638 4.29984 25.9027 3.8243 25.9027 3.26949C25.9027 2.71469 25.7434 2.23914 25.3454 1.92211C25.0269 1.60508 24.5492 1.3673 24.0716 1.3673C23.5939 1.3673 23.1162 1.52582 22.7977 1.92211C22.4793 2.23914 22.2404 2.71469 22.2404 3.26949C22.2404 3.8243 22.3997 4.29984 22.7977 4.61687ZM27.4153 5.64722V0.891758H28.1319L30.4406 4.61687V0.891758H31.0776V5.64722H30.4406L27.9726 1.76359V5.64722H27.4153Z" fill="white" stroke="white" stroke-width="0.370767" stroke-miterlimit="10"/>
</svg>
