<svg width="81" height="24" viewBox="0 0 81 24" fill="none" xmlns="http://www.w3.org/2000/svg">
<path d="M34.9643 5.42801C34.9643 6.06207 34.8051 6.61687 34.407 7.01316C33.9293 7.48871 33.372 7.72648 32.6555 7.72648C31.939 7.72648 31.3817 7.48871 30.904 7.01316C30.4263 6.53762 30.1875 5.98281 30.1875 5.26949C30.1875 4.55617 30.4263 4.00137 30.904 3.52582C31.3817 3.05027 31.939 2.8125 32.6555 2.8125C32.974 2.8125 33.2924 2.89176 33.6109 3.05027C33.9293 3.20879 34.1682 3.3673 34.3274 3.60508L33.9293 4.00137C33.6109 3.60508 33.2128 3.44656 32.6555 3.44656C32.1778 3.44656 31.7002 3.60508 31.3817 4.00137C30.9836 4.3184 30.8244 4.79394 30.8244 5.34875C30.8244 5.90355 30.9836 6.3791 31.3817 6.69613C31.7798 7.01316 32.1778 7.25094 32.6555 7.25094C33.2128 7.25094 33.6109 7.09242 34.0089 6.69613C34.2478 6.45836 34.407 6.14133 34.407 5.74504H32.6555V5.11098H34.9643V5.42801ZM38.6265 3.44656H36.477V4.95246H38.4673V5.50726H36.477V7.01316H38.6265V7.64722H35.8401V2.89176H38.6265V3.44656ZM41.2538 7.64722H40.6169V3.44656H39.2634V2.89176H42.6072V3.44656H41.2538V7.64722ZM44.916 7.64722V2.89176H45.5529V7.64722H44.916ZM48.2598 7.64722H47.6229V3.44656H46.2694V2.89176H49.5336V3.44656H48.1802V7.64722H48.2598ZM55.8231 7.01316C55.3454 7.48871 54.7881 7.72648 54.0716 7.72648C53.355 7.72648 52.7977 7.48871 52.3201 7.01316C51.8424 6.53762 51.6035 5.98281 51.6035 5.26949C51.6035 4.55617 51.8424 4.00137 52.3201 3.52582C52.7977 3.05027 53.355 2.8125 54.0716 2.8125C54.7881 2.8125 55.3454 3.05027 55.8231 3.52582C56.3007 4.00137 56.5396 4.55617 56.5396 5.26949C56.5396 5.98281 56.3007 6.53762 55.8231 7.01316ZM52.7977 6.61687C53.1162 6.9339 53.5939 7.17168 54.0716 7.17168C54.5492 7.17168 55.0269 7.01316 55.3454 6.61687C55.6638 6.29984 55.9027 5.8243 55.9027 5.26949C55.9027 4.71469 55.7434 4.23914 55.3454 3.92211C55.0269 3.60508 54.5492 3.3673 54.0716 3.3673C53.5939 3.3673 53.1162 3.52582 52.7977 3.92211C52.4793 4.23914 52.2404 4.71469 52.2404 5.26949C52.2404 5.8243 52.3997 6.29984 52.7977 6.61687ZM57.4153 7.64722V2.89176H58.1319L60.4406 6.61687V2.89176H61.0776V7.64722H60.4406L57.9726 3.76359V7.64722H57.4153Z" fill="white" stroke="white" stroke-width="0.370767" stroke-miterlimit="10"/>
<path d="M46.3555 14.1434C44.9183 14.1434 43.7806 15.1901 43.7806 16.644C43.7806 18.0397 44.9183 19.1446 46.3555 19.1446C47.7926 19.1446 48.9304 18.0978 48.9304 16.644C48.9304 15.132 47.7926 14.1434 46.3555 14.1434ZM46.3555 18.0978C45.577 18.0978 44.9183 17.4581 44.9183 16.5858C44.9183 15.7135 45.577 15.0738 46.3555 15.0738C47.1339 15.0738 47.7926 15.6554 47.7926 16.5858C47.7926 17.4581 47.1339 18.0978 46.3555 18.0978ZM40.7865 14.1434C39.3494 14.1434 38.2116 15.1901 38.2116 16.644C38.2116 18.0397 39.3494 19.1446 40.7865 19.1446C42.2237 19.1446 43.3614 18.0978 43.3614 16.644C43.3614 15.132 42.2237 14.1434 40.7865 14.1434ZM40.7865 18.0978C40.0081 18.0978 39.3494 17.4581 39.3494 16.5858C39.3494 15.7135 40.0081 15.0738 40.7865 15.0738C41.565 15.0738 42.2237 15.6554 42.2237 16.5858C42.2237 17.4581 41.565 18.0978 40.7865 18.0978ZM34.1397 14.8994V15.9461H36.7146C36.6547 16.5277 36.4152 16.9929 36.1158 17.2837C35.7565 17.6326 35.1577 18.0397 34.1397 18.0397C32.5229 18.0397 31.3252 16.8184 31.3252 15.2483C31.3252 13.6781 32.5828 12.4569 34.1397 12.4569C34.978 12.4569 35.6367 12.8058 36.1158 13.2129L36.8942 12.4569C36.2355 11.8754 35.3972 11.4102 34.1996 11.4102C32.0438 11.4102 30.1875 13.1548 30.1875 15.2483C30.1875 17.3418 32.0438 19.0864 34.1996 19.0864C35.3972 19.0864 36.2355 18.7375 36.9541 17.9815C37.6727 17.2837 37.9122 16.2951 37.9122 15.5391C37.9122 15.3065 37.9122 15.0738 37.8523 14.8994H34.1397ZM61.3258 15.7135C61.0863 15.132 60.4875 14.1434 59.1701 14.1434C57.8527 14.1434 56.7749 15.132 56.7749 16.644C56.7749 18.0397 57.8527 19.1446 59.2899 19.1446C60.4276 19.1446 61.1462 18.4467 61.3857 18.0397L60.5474 17.4581C60.248 17.8652 59.8887 18.156 59.2899 18.156C58.6911 18.156 58.3318 17.9234 58.0324 17.4L61.4456 16.0043L61.3258 15.7135ZM57.8527 16.5277C57.8527 15.5972 58.6312 15.0738 59.1701 15.0738C59.5893 15.0738 60.0084 15.3064 60.1282 15.5972L57.8527 16.5277ZM55.0383 18.912H56.176V11.6428H55.0383V18.912ZM53.2418 14.6668C52.9424 14.376 52.4634 14.0852 51.8646 14.0852C50.6071 14.0852 49.4094 15.1901 49.4094 16.5858C49.4094 17.9815 50.5472 19.0283 51.8646 19.0283C52.4634 19.0283 52.9424 18.7375 53.182 18.4467H53.2418V18.7957C53.2418 19.7261 52.7029 20.2495 51.8646 20.2495C51.2059 20.2495 50.7268 19.7843 50.6071 19.3772L49.649 19.7843C49.9484 20.424 50.6669 21.2381 51.9245 21.2381C53.2418 21.2381 54.3197 20.4821 54.3197 18.6794V14.2597H53.2418V14.6668ZM51.9245 18.0978C51.146 18.0978 50.4873 17.4581 50.4873 16.5858C50.4873 15.7135 51.146 15.0738 51.9245 15.0738C52.7029 15.0738 53.3017 15.7135 53.3017 16.5858C53.3017 17.4581 52.7029 18.0978 51.9245 18.0978ZM66.5355 11.6428H63.8409V18.912H64.9786V16.1788H66.5355C67.793 16.1788 68.9907 15.3065 68.9907 13.9108C68.9907 12.5151 67.793 11.6428 66.5355 11.6428ZM66.5954 15.132H64.9786V12.6314H66.5954C67.4337 12.6314 67.9128 13.3292 67.9128 13.8526C67.8529 14.4923 67.3739 15.132 66.5954 15.132ZM73.4818 14.0852C72.6434 14.0852 71.8051 14.4341 71.5057 15.1901L72.5237 15.5972C72.7632 15.1901 73.1225 15.0738 73.5417 15.0738C74.1405 15.0738 74.6794 15.4228 74.7393 16.0043V16.0624C74.5596 15.9461 74.0806 15.7717 73.6015 15.7717C72.5237 15.7717 71.4458 16.3532 71.4458 17.4C71.4458 18.3886 72.344 19.0283 73.3021 19.0283C74.0806 19.0283 74.4399 18.6794 74.7393 18.3304H74.7992V18.912H75.877V16.1206C75.7573 14.8412 74.7393 14.0852 73.4818 14.0852ZM73.362 18.0978C73.0027 18.0978 72.4638 17.9234 72.4638 17.4581C72.4638 16.8766 73.1225 16.7021 73.6614 16.7021C74.1405 16.7021 74.38 16.8184 74.6794 16.9348C74.5596 17.6326 73.9608 18.0978 73.362 18.0978ZM79.6496 14.2597L78.392 17.4H78.3322L77.0148 14.2597H75.8172L77.7932 18.6794L76.6555 21.1218H77.7932L80.8472 14.2597H79.6496ZM69.5895 18.912H70.7272V11.6428H69.5895V18.912Z" fill="white"/>
<path d="M0.89472 0.667969C0.624406 0.936728 0.534302 1.38466 0.534302 1.92218V21.7208C0.534302 22.2583 0.714511 22.7062 0.984825 22.975L1.07493 23.0646L12.2479 11.9559V11.7767L0.89472 0.667969Z" fill="url(#paint0_linear)"/>
<path d="M15.8536 15.7242L12.1593 12.0512V11.7824L15.8536 8.10938L15.9437 8.19896L20.3588 10.7074C21.6203 11.4241 21.6203 12.5887 20.3588 13.3054L15.8536 15.7242Z" fill="url(#paint1_linear)"/>
<path d="M15.9454 15.6301L12.161 11.8674L0.897949 23.0657C1.34847 23.5137 1.97921 23.5137 2.79015 23.1553L15.9454 15.6301Z" fill="url(#paint2_linear)"/>
<path d="M15.9454 8.10517L2.79015 0.669493C1.97921 0.221561 1.34847 0.311148 0.897949 0.75908L12.161 11.8678L15.9454 8.10517Z" fill="url(#paint3_linear)"/>
<path opacity="0.2" d="M15.8548 15.5391L2.78966 22.8851C2.06882 23.3331 1.43809 23.2435 0.987566 22.8851L0.897461 22.9747L0.987566 23.0643C1.43809 23.4227 2.06882 23.5123 2.78966 23.0643L15.8548 15.5391Z" fill="white"/>
<path opacity="0.2" d="M0.895086 22.8866C0.624772 22.6178 0.534668 22.1699 0.534668 21.6323V21.7219C0.534668 22.2595 0.714877 22.7074 0.985191 22.9761V22.8866H0.895086ZM20.3577 13.0321L15.8525 15.5405L15.9426 15.6301L20.3577 13.1216C20.9884 12.7633 21.2587 12.3154 21.2587 11.8674C21.2587 12.3154 20.8983 12.6737 20.3577 13.0321Z" fill="white"/>
<path opacity="0.2" d="M2.78692 0.761124L20.3573 10.7052C20.898 11.0636 21.2584 11.4219 21.2584 11.8698C21.2584 11.4219 20.9881 10.974 20.3573 10.6156L2.78692 0.671538C1.52545 -0.0451533 0.534302 0.492365 0.534302 1.92575V2.01533C0.534302 0.671538 1.52545 0.0444331 2.78692 0.761124Z" fill="white"/>
<defs>
<linearGradient id="paint0_linear" x1="11.1666" y1="1.75196" x2="-3.86839" y2="16.8731" gradientUnits="userSpaceOnUse">
<stop stop-color="#00A0FF"/>
<stop offset="0.007" stop-color="#00A1FF"/>
<stop offset="0.26" stop-color="#00BEFF"/>
<stop offset="0.512" stop-color="#00D2FF"/>
<stop offset="0.76" stop-color="#00DFFF"/>
<stop offset="1" stop-color="#00E3FF"/>
</linearGradient>
<linearGradient id="paint1_linear" x1="22.0113" y1="11.8729" x2="0.208724" y2="11.8729" gradientUnits="userSpaceOnUse">
<stop stop-color="#FFE000"/>
<stop offset="0.409" stop-color="#FFBD00"/>
<stop offset="0.775" stop-color="#FFA500"/>
<stop offset="1" stop-color="#FF9C00"/>
</linearGradient>
<linearGradient id="paint2_linear" x1="13.8973" y1="13.9243" x2="-6.49039" y2="34.43" gradientUnits="userSpaceOnUse">
<stop stop-color="#FF3A44"/>
<stop offset="1" stop-color="#C31162"/>
</linearGradient>
<linearGradient id="paint3_linear" x1="-1.898" y1="-5.89181" x2="7.20652" y2="3.26537" gradientUnits="userSpaceOnUse">
<stop stop-color="#32A071"/>
<stop offset="0.069" stop-color="#2DA771"/>
<stop offset="0.476" stop-color="#15CF74"/>
<stop offset="0.801" stop-color="#06E775"/>
<stop offset="1" stop-color="#00F076"/>
</linearGradient>
</defs>
</svg>
