<svg width="19" height="19" viewBox="0 0 19 19" fill="none" xmlns="http://www.w3.org/2000/svg">
<g clip-path="url(#clip0)">
<path d="M13.7243 2.39819H6.22605C4.15547 2.39819 2.47693 4.06708 2.47693 6.12575V13.5809C2.47693 15.6395 4.15547 17.3084 6.22605 17.3084H13.7243C15.7949 17.3084 17.4734 15.6395 17.4734 13.5809V6.12575C17.4734 4.06708 15.7949 2.39819 13.7243 2.39819Z" stroke="white" stroke-width="2" stroke-linecap="round" stroke-linejoin="round"/>
<path d="M12.9743 9.38423C13.0669 10.0047 12.9603 10.6383 12.6697 11.1951C12.3792 11.7518 11.9194 12.2033 11.3559 12.4853C10.7924 12.7673 10.1538 12.8655 9.53098 12.7658C8.90813 12.6662 8.33274 12.3738 7.88666 11.9303C7.44057 11.4868 7.1465 10.9147 7.04627 10.2954C6.94605 9.67614 7.04477 9.04122 7.3284 8.48095C7.61203 7.92068 8.06612 7.4636 8.62609 7.17472C9.18606 6.88583 9.82339 6.77985 10.4474 6.87186C11.084 6.96571 11.6733 7.26062 12.1283 7.71302C12.5833 8.16543 12.8799 8.75135 12.9743 9.38423Z" stroke="white" stroke-width="2" stroke-linecap="round" stroke-linejoin="round"/>
<ellipse cx="14.098" cy="5.75084" rx="1.125" ry="1.11827" fill="white"/>
</g>
<defs>
<clipPath id="clip0">
<rect width="17.9958" height="17.8923" fill="white" transform="translate(0.976929 0.906006)"/>
</clipPath>
</defs>
</svg>
