<svg width="16" height="13" viewBox="0 0 16 13" fill="none" xmlns="http://www.w3.org/2000/svg">
<path d="M15.2431 2.22384C14.7075 2.49209 14.1719 2.58151 13.547 2.67093C14.1719 2.31326 14.6182 1.77675 14.7967 1.0614C14.2612 1.41908 13.6363 1.59791 12.9222 1.77675C12.3866 1.24024 11.5832 0.882568 10.7798 0.882568C9.26232 0.882568 7.92335 2.22384 7.92335 3.83336C7.92335 4.10162 7.92335 4.28045 8.01261 4.45929C5.60246 4.36987 3.37084 3.20744 1.94261 1.41908C1.67481 1.86617 1.58555 2.31326 1.58555 2.93918C1.58555 3.92278 2.12114 4.81696 2.92452 5.35347C2.4782 5.35347 2.03187 5.17463 1.58555 4.9958C1.58555 6.42649 2.56746 7.58892 3.90643 7.85717C3.63864 7.94659 3.37084 7.94659 3.10305 7.94659C2.92452 7.94659 2.74599 7.94659 2.56746 7.85717C2.92452 9.01961 3.9957 9.91379 5.33467 9.91379C4.35276 10.7186 3.10305 11.1656 1.67481 11.1656C1.40702 11.1656 1.22849 11.1656 0.960693 11.1656C2.29967 11.9704 3.81717 12.5069 5.42393 12.5069C10.7798 12.5069 13.7256 8.03601 13.7256 4.19104C13.7256 4.10162 13.7256 3.92278 13.7256 3.83336C14.3504 3.38627 14.886 2.84976 15.2431 2.22384Z" fill="#FF6810"/>
</svg>
